{"title":"Lily Allen - Air Balloon [Music Video] 1080p [Sbyky]","uid":10005423,"size":116106960,"categoryP":"video","categoryS":"music_videos","magnet":"?xt=urn:btih:c06451f1ae558ea4754ba4a73a188b2bdda5a247&amp;dn=Lily+Allen+-+Air+Balloon+%5BMusic+Video%5D+1080p+%5BSbyky%5D&amp;tr=udp%3A%2F%2Ftracker.openbittorrent.com%3A80&amp;tr=udp%3A%2F%2Fopen.demonii.com%3A1337&amp;tr=udp%3A%2F%2Ftracker.coppersurfer.tk%3A6969&amp;tr=udp%3A%2F%2Fexodus.desync.com%3A6969","seeders":2,"leechers":0,"uploader":"Sbyky","files":1,"time":1398043478,"description":"\n\nGeneral\nComplete name                            : Lily Allen - Air Balloon [Music Video] 1080p [Sbyky].MP4\nFormat                                   : MPEG-4\nFormat profile                           : Base Media\nCodec ID                                 : isom\nFile size                                : 111 MiB\nDuration                                 : 4mn 1s\nOverall bit rate mode                    : Variable\nOverall bit rate                         : 3 851 Kbps\nEncoded date                             : UTC 2014-02-09 12:54:16\nTagged date                              : UTC 2014-02-09 12:54:16\n\nVideo\nID                                       : 1\nFormat                                   : AVC\nFormat/Info                              : Advanced Video Codec\nFormat profile                           : &lt;a class=&quot;__cf_email__&quot; href=&quot;/cdn-cgi/l/email-protection&quot; data-cfemail=&quot;276f4e404f676b130917&quot;&gt;[email&amp;#160;protected]&lt;/a&gt;&lt;script cf-hash='f9e31' type=&quot;text/javascript&quot;&gt;\n/* &lt;![CDATA[ */!function(){try{var t=&quot;currentScript&quot;in document?document.currentScript:function(){for(var t=document.getElementsByTagName(&quot;script&quot;),e=t.length;e--;)if(t[e].getAttribute(&quot;cf-hash&quot;))return t[e]}();if(t&amp;&amp;t.previousSibling){var e,r,n,i,c=t.previousSibling,a=c.getAttribute(&quot;data-cfemail&quot;);if(a){for(e=&quot;&quot;,r=parseInt(a.substr(0,2),16),n=2;a.length-n;n+=2)i=parseInt(a.substr(n,2),16)^r,e+=String.fromCharCode(i);e=document.createTextNode(e),c.parentNode.replaceChild(e,c)}}}catch(u){}}();/* ]]&gt; */&lt;/script&gt;\nFormat settings, CABAC                   : Yes\nFormat settings, ReFrames                : 3 frames\nCodec ID                                 : avc1\nCodec ID/Info                            : Advanced Video Coding\nDuration                                 : 4mn 1s\nDuration_LastFrame                       : -39ms\nBit rate                                 : 3 724 Kbps\nWidth                                    : 1 920 pixels\nHeight                                   : 1 080 pixels\nDisplay aspect ratio                     : 16:9\nFrame rate mode                          : Constant\nFrame rate                               : 25.000 fps\nColor space                              : YUV\nChroma subsampling                       : 4:2:0\nBit depth                                : 8 bits\nScan type                                : Progressive\nBits/(Pixel*Frame)                       : 0.072\nStream size                              : 107 MiB (97%)\nEncoded date                             : UTC 2014-02-09 12:54:16\nTagged date                              : UTC 2014-02-09 12:54:16\n\nAudio\nID                                       : 2\nFormat                                   : AAC\nFormat/Info                              : Advanced Audio Codec\nFormat profile                           : LC\nCodec ID                                 : 40\nDuration                                 : 4mn 1s\nBit rate mode                            : Variable\nBit rate                                 : 126 Kbps\nChannel(s)                               : 2 channels\nChannel positions                        : Front: L R\nSampling rate                            : 44.1 KHz\nCompression mode                         : Lossy\nStream size                              : 3.61 MiB (3%)\nEncoded date                             : UTC 2014-02-09 12:51:55\nTagged date                              : UTC 2014-02-09 12:51:55\n\nShared By Sbyky\n","torrent":{"xt":"urn:btih:c06451f1ae558ea4754ba4a73a188b2bdda5a247","amp;dn":"Lily+Allen+-+Air+Balloon+%5BMusic+Video%5D+1080p+%5BSbyky%5D","amp;tr":["udp%3A%2F%2Ftracker.openbittorrent.com%3A80","udp%3A%2F%2Fopen.demonii.com%3A1337","udp%3A%2F%2Ftracker.coppersurfer.tk%3A6969","udp%3A%2F%2Fexodus.desync.com%3A6969"],"infoHash":"c06451f1ae558ea4754ba4a73a188b2bdda5a247","infoHashBuffer":{"type":"Buffer","data":[192,100,81,241,174,85,142,164,117,75,164,167,58,24,139,43,221,165,162,71]},"announce":[],"urlList":[]}}